<svg width="145" height="108" viewBox="0 0 145 108" fill="none" xmlns="http://www.w3.org/2000/svg">
<g clip-path="url(#clip0_2360_2705)">
<path d="M82.3035 5.6575L79.8512 7.07248L77.4014 8.48747L74.9515 7.07248V26.8799L72.4992 28.2948L70.0493 26.8799V7.07248L67.5994 8.48747L65.1496 7.07248L62.6973 5.6575L63.9651 4.92671L65.1496 4.24496L67.5994 2.82752L70.0493 1.41499L72.4992 0L74.9515 1.41499L77.4014 2.82752L79.8512 4.24496L81.0357 4.92671L82.3035 5.6575Z" fill="black"/>
<path d="M104.357 18.3924V35.3698V38.1998V55.1771L101.905 56.5921L99.4575 58.0071L98.0131 58.8384L97.0052 59.4221L95.9973 58.8384L94.5553 58.0071L92.1055 56.5921L94.5553 55.1771L96.7011 53.9387H97.3093L97.0052 53.7621L92.1055 50.9322L89.6531 49.5172L88.8218 49.0365L87.2033 48.1022L84.7534 46.6872L82.3035 45.2722L80.3319 44.1368L79.8512 43.8572L77.4014 42.4423L79.8512 41.0273L82.3035 39.6147L89.6531 43.8572L90.1338 44.1368L92.1055 45.2722L94.5553 46.6872L97.0052 48.1022L98.6237 49.0365L99.4575 49.5172V24.0524L98.6237 24.533L97.0052 25.4673L95.3891 24.533L94.5553 24.0524L92.1055 22.6374L97.0052 19.8074L97.3093 19.6308H96.7011L94.5553 18.3924L92.1055 16.9774L94.5553 15.5624L95.9973 14.7311L97.0052 14.1475L98.0131 14.7311L99.4575 15.5624L101.905 16.9774L104.357 18.3924Z" fill="black"/>
<path d="M82.3035 67.9095L81.0381 68.6403H81.0357L81.0332 68.6427L79.8512 69.3245L77.4014 70.7395L74.9515 72.1545L72.5016 73.5694H72.4992L70.0493 72.1545L67.5994 70.7395L65.1496 69.3245L63.9651 68.6427L63.9627 68.6403L62.6973 67.9095L65.1496 66.497L67.5994 65.0795L70.0493 66.497V44.1367H70.53L72.4992 45.2721L74.4708 44.1367H74.9515V66.497L77.4014 65.0795L79.8512 66.497L82.3035 67.9095Z" fill="black"/>
<path d="M87.2036 31.1249L84.7537 32.5399L82.3039 33.9549L81.6442 34.335L79.8516 35.3699L77.4017 36.7848L74.9518 38.1998L73.1592 39.2347H71.8423L70.0496 38.1998L67.5998 36.7848L65.1499 35.3699L63.3573 34.335L62.6976 33.9549L60.2477 32.5399L57.7979 31.1249L60.2477 29.7099L60.7284 29.4328L62.6976 28.2949L64.6692 29.4328L65.1499 29.7099L67.5998 31.1249L70.0496 32.5399L72.4995 33.9549L74.9518 32.5399L77.4017 31.1249L79.8516 29.7099L80.3322 29.4328L82.3039 28.2949L84.2731 29.4328L84.7537 29.7099L87.2036 31.1249Z" fill="black"/>
<path d="M67.5994 42.4423L65.1496 43.8572L64.6689 44.1368L62.6972 45.2722L60.2474 46.6872L57.7975 48.1022L56.179 49.0365L55.3452 49.5172L52.8953 50.9322L50.4455 52.3472L47.9956 53.7621L47.6915 53.9387H48.2997L50.4455 55.1771L52.8953 56.5921L50.4455 58.0046L49.0035 58.8384L47.9956 59.4221L46.9877 58.8384L45.5457 58.0071L43.0959 56.5921L40.6436 55.1771V18.3924L45.5457 15.5624L46.9877 14.7311L47.9956 14.1475L49.0035 14.7311L50.4455 15.5624L52.8953 16.9774L50.4455 18.39L48.2997 19.6308H47.6915L47.9956 19.8074L50.4455 21.2224L52.8953 22.6374L50.4455 24.0499L49.6117 24.533L47.9956 25.4673L46.3771 24.533L45.5457 24.0524V49.5172L46.3771 49.0365L47.9956 48.1022L50.4455 46.6872L52.8953 45.2722L54.867 44.1368L55.3452 43.8572L62.6972 39.6147L65.1496 41.0273L67.5994 42.4423Z" fill="black"/>
<path d="M18.4424 103.796L24.7547 90.3301H28.8182L20.5392 107.999H16.3482L14.4574 103.975L12.579 107.999H8.37569L0.0966797 90.3301H4.16017L10.4847 103.796L12.4269 99.644L8.06915 90.3301H12.1326L14.4574 95.3009L16.7945 90.3301H20.858L16.488 99.644L18.4424 103.796Z" fill="black"/>
<path d="M32.406 90.3311H36.6092L44.8883 108H29.8899L31.143 105.05H39.4466L34.515 94.5221L28.1904 108H24.127L32.406 90.3311Z" fill="black"/>
<path d="M62.4024 100.999H60.0899L63.5894 108H59.5651L55.9872 100.999H50.1482V108H46.4697V90.3311H62.4024V100.999ZM50.1507 94.0095V97.3177H58.724V94.0095H50.1507Z" fill="black"/>
<path d="M65.1738 94.0095V90.3311H81.1065V108H65.1738V97.3202H68.8523V104.322H77.4256V94.012H65.1738V94.0095Z" fill="black"/>
<path d="M93.918 90.3311H109.851V108H93.918V90.3311ZM106.17 104.322V94.012H97.5964V104.322H106.17Z" fill="black"/>
<path d="M127.377 90.3311V100.999H115.125V108H111.446V97.3202H123.698V94.012H111.446V90.3335H127.379L127.377 90.3311Z" fill="black"/>
<path d="M144.903 94.0091H132.652V97.3172H144.903V107.997H128.971V104.319H141.222V100.996H128.971V90.3281H144.903V94.0066V94.0091Z" fill="black"/>
</g>
<defs>
<clipPath id="clip0_2360_2705">
<rect width="144.807" height="108" fill="white" transform="translate(0.0966797)"/>
</clipPath>
</defs>
</svg>
