<svg width="98" height="30" viewBox="0 0 98 30" fill="none" xmlns="http://www.w3.org/2000/svg">
<path d="M17.462 2.30405L16.4645 2.87976L15.4664 3.45607L14.469 2.88036V10.9445L13.4715 11.5208L12.4735 10.9445V2.88036L11.476 3.45607L10.4785 2.88036L9.48047 2.30405L10.4785 1.72773L11.476 1.15202L12.4735 0.575712L13.4715 0L14.469 0.575712L15.4664 1.15202L16.4645 1.72833L17.462 2.30405Z" fill="#439E8B"/>
<path d="M26.4399 7.48834V22.4652L25.4418 23.0415L24.4444 23.6173L23.4463 24.1936L22.4489 23.6173L21.4508 23.0415L22.4489 22.4652L23.4463 21.8889L22.4489 21.3132L21.4508 20.7369L20.4533 20.1612L19.4553 19.5849L18.4578 19.0092L17.4598 18.4329L16.4623 17.8571L15.4648 17.2808L16.4623 16.7051L17.4598 16.1288H17.4604L18.4578 16.7051L19.4553 17.2808L20.4533 17.8571L21.4508 18.4329L22.4489 19.0092L23.4463 19.5849L24.4444 20.1612V9.79239L23.4463 10.3687L22.4489 9.79239L21.4508 9.21668L22.4489 8.64037L23.4463 8.06405L22.4489 7.48834L21.4508 6.91203L22.4489 6.33632L23.4463 5.76001L24.4444 6.33632L25.4418 6.91203L26.4399 7.48834Z" fill="#202020"/>
<path d="M19.4569 12.6728L18.4594 13.2485L16.4639 14.4005L15.4665 14.9768L14.4684 15.5525L13.4709 16.1288L12.4729 15.5531L11.4754 14.9768L10.478 14.4011L9.4799 13.8248L8.48244 13.2491L7.48438 12.6728L8.48244 12.0965L9.4799 11.5208L10.478 12.0965L11.4754 12.6728L12.4729 13.2485L13.4709 13.8248L14.4684 13.2485L15.4665 12.6728L16.4639 12.0965L17.462 11.5208L18.4594 12.0965L19.4569 12.6728Z" fill="#202020"/>
<path d="M11.4751 17.2808L10.4776 17.8571L9.47955 18.4329L8.48209 19.0086L7.48403 19.5849L6.48656 20.1612L5.4885 20.7369L4.49104 21.3132L3.49298 21.8889L4.49104 22.4652L5.4885 23.0415L4.49104 23.6173L3.49298 24.1936L2.49552 23.6173L1.49746 23.0415L0.5 22.4652V7.48834L1.49746 6.91203L2.49552 6.33632L3.49298 5.76001L4.49104 6.33632L5.4885 6.91203L4.49104 7.48834L3.49298 8.06405L4.49104 8.64037L5.4885 9.21668L4.49104 9.79239L3.49298 10.3687L2.49552 9.79239V20.1612L3.49298 19.5849L4.49104 19.0092L5.4885 18.4329L6.48656 17.8571L7.48403 17.2808L8.48209 16.7045L9.47955 16.1288L10.4776 16.7051L11.4751 17.2808Z" fill="#202020"/>
<path d="M17.4626 27.6499L16.4645 28.2256L15.467 28.8019H15.4664L14.469 29.3782L13.4715 29.954L12.4735 29.3782L11.476 28.8019L10.4785 28.2262L9.48047 27.6499L10.4785 27.0736L11.476 26.4979L12.4735 27.0736V17.8574L13.4715 18.4331L14.469 17.8574V27.0736L15.467 26.4979L16.4645 27.0736L17.4626 27.6499Z" fill="#439E8B"/>
<path d="M58.1743 13.5942L58.2007 13.5378H58.2175L58.1827 13.6115H58.1654L58.1576 13.5948L58.1498 13.6115H58.1324L58.0977 13.5378H58.1144L58.1408 13.5942L58.1492 13.5768L58.1312 13.5378H58.148L58.1576 13.5588L58.1672 13.5378H58.1839L58.166 13.5768L58.1743 13.5942Z" fill="#202020"/>
<path d="M58.2328 13.5376H58.2501L58.2849 13.6113H58.2226L58.228 13.5987H58.2627L58.2424 13.555L58.216 13.6113H58.1992L58.234 13.5376H58.2328Z" fill="#202020"/>
<path d="M58.3581 13.5819H58.3485L58.3629 13.6113H58.3461L58.3312 13.5819H58.3066V13.6113H58.291V13.5376H58.3575V13.5819H58.3581ZM58.3072 13.5526V13.5664H58.3431V13.5526H58.3072Z" fill="#202020"/>
<path d="M58.3691 13.5527V13.5371H58.4356V13.6108H58.3691V13.5659H58.3847V13.5952H58.4207V13.5521H58.3697L58.3691 13.5527Z" fill="#202020"/>
<path d="M58.4805 13.5376H58.547V13.6113H58.4805V13.5376ZM58.5314 13.5963V13.5532H58.4954V13.5963H58.5314Z" fill="#202020"/>
<path d="M58.6192 13.5377V13.582H58.5683V13.6114H58.5527V13.5665H58.6037V13.5527H58.5527V13.5371H58.6192V13.5377Z" fill="#202020"/>
<path d="M58.6915 13.5526H58.6406V13.5664H58.6915V13.6113H58.625V13.5957H58.6759V13.5819H58.625V13.5376H58.6915V13.5532V13.5526Z" fill="#202020"/>
<path d="M41.4966 17.0899L44.3662 10.9446H46.2131L42.4491 19.0093H40.544L39.685 17.172L38.8313 19.0093H36.9202L33.1562 10.9446H35.0032L37.8788 17.0899L38.7618 15.195L36.7813 10.9446H38.6282L39.6856 13.2133L40.7489 10.9446H42.5959L40.6094 15.195L41.4984 17.0899H41.4942H41.4966Z" fill="#202020"/>
<path d="M47.8441 10.9438H49.7551L53.5191 19.0086H46.6992L47.2684 17.6619H51.0443L48.8026 12.8573L45.927 19.0086H44.0801L47.8441 10.9438Z" fill="#202020"/>
<path d="M61.4829 15.8125H60.4315L62.0233 19.0074H60.1931L58.5666 15.8125H55.9115V19.0074H54.2383V10.9438H61.4817V15.8125H61.4829ZM55.9127 12.6237V14.1345H59.8109V12.6237H55.9127Z" fill="#202020"/>
<path d="M62.7422 12.6238V10.9446H69.9856V19.0093H62.7422V14.1347H64.4154V17.3295H68.3136V12.6238H62.7422Z" fill="#202020"/>
<path d="M74.8184 10.9438H82.0618V19.0086H74.8184V10.9438ZM80.3886 17.3288V12.6231H76.4904V17.3288H80.3886Z" fill="#439E8B"/>
<path d="M90.0305 10.9438V15.8125H84.4603V19.0074H82.7871V14.1327H88.3573V12.6218H82.7871V10.9426H90.0305V10.9438Z" fill="#439E8B"/>
<path d="M97.9993 12.6238H92.4291V14.1347H97.9993V19.0094H90.7559V17.3302H96.3261V15.8145H90.7559V10.9458H97.9993V12.6244V12.6238Z" fill="#439E8B"/>
</svg>
